<svg xmlns="http://www.w3.org/2000/svg" viewBox="0 0 1024 1024" width="1024" height="1024">
  <!-- B案改2: チャコール×ゴールド。プレミアム感、出会い系に見えない -->
  <defs>
    <linearGradient id="bgB3" x1="0%" y1="0%" x2="100%" y2="100%">
      <stop offset="0%" style="stop-color:#1C1C1E"/>
      <stop offset="100%" style="stop-color:#2C2C2E"/>
    </linearGradient>
    <linearGradient id="gold" x1="0%" y1="0%" x2="100%" y2="100%">
      <stop offset="0%" style="stop-color:#F5C842"/>
      <stop offset="100%" style="stop-color:#D4A017"/>
    </linearGradient>
  </defs>
  <rect width="1024" height="1024" rx="220" fill="url(#bgB3)"/>

  <clipPath id="lc3"><circle cx="400" cy="512" r="210"/></clipPath>
  <circle cx="400" cy="512" r="210" fill="none" stroke="url(#gold)" stroke-width="14" opacity="0.8"/>
  <circle cx="624" cy="512" r="210" fill="none" stroke="url(#gold)" stroke-width="14" opacity="0.8"/>
  <circle cx="624" cy="512" r="210" fill="#F5C842" opacity="0.12" clip-path="url(#lc3)"/>

  <!-- ハート (ゴールド) -->
  <path d="M512 490 C512 490 478 455 454 455 C430 455 410 473 410 497
           C410 540 460 572 512 610 C564 572 614 540 614 497
           C614 473 594 455 570 455 C546 455 512 490 512 490 Z"
        fill="url(#gold)" opacity="0.95"/>
</svg>
